# xmcd
#
# Track frame offsets: 
#        150
#        25312
#        42687
#        62515
#        78520
#        97000
#        113825
#        133092
#        150197
#        166977
#        184909
#        199987
#        216559
#        232687
#        252535
#        267572
#        281852
#        295735
#        313572
#        331610
#
# Disc length: 4642 seconds
#
# Revision: 3
# Processed by: cddbd v1.5.2PL0 Copyright (c) Steve Scherf et al.
# Submitted via: ExactAudioCopy v1.0b3
#
DISCID=2b122014
DTITLE=Modern Talking - The Best
DYEAR=1988
DGENRE=Pop
TTITLE0=You're My Heart, You're My Soul
TTITLE1=You Can Win If You Want
TTITLE2=Do You Wanna
TTITLE3=Lucky Guy
TTITLE4=Diamonds Never Made A Lady
TTITLE5=On In A Million
TTITLE6=Bells Of Paris
TTITLE7=Cherri Cherri Lady
TTITLE8=Brother Loui
TTITLE9=Just We Two (Mona Lisa)
TTITLE10=Doctor For My Heart
TTITLE11=Angie's Heart
TTITLE12=With A Little Love
TTITLE13=Why Did You Do It Just Tonight
TTITLE14=Don't Give Up
TTITLE15=Geronimo's Cadillac
TTITLE16=Sweet Little Sheila
TTITLE17=Princess Of The Night
TTITLE18=Romantic Warriors
TTITLE19=Arabian Gold
EXTD=ID3G: 13
EXTT0=from: "The First Album" 1985
EXTT1=from: "The First Album"  1985
EXTT2=from: "The First Album"  1985
EXTT3=from: "The First Album"  1985
EXTT4=from: "The Second Album" 1985
EXTT5=from: "The Second Album" 1985
EXTT6=from: "The Second Album" 1985
EXTT7=from: "The Second Album" 1985
EXTT8=from: "The Third Album - Ready for Romance" \n1986
EXTT9=from: "The Third Album - Ready for Romance" \n1986
EXTT10=from: "The Third Album - Ready for Romance" \n1986
EXTT11=from: "The Third Album - Ready for Romance" \n1986
EXTT12=from: "The Forth Album - In The Middle Of\nNowhere" 1987
EXTT13=from: "The Forth Album - In The Middle Of\nNowhere" 1987
EXTT14=from: "The Fifth Album - Romantic Warriors "\n1987
EXTT15=from: "The Fifth Album - Romantic Warriors "\n1987
EXTT16=from: "The Fifth Album - Romantic Warriors "\n1987
EXTT17=from: "The Fifth Album - Romantic Warriors "\n1987
EXTT18=from: "The Sixth Album - In The Garden Of \nVenus" 1987\n
EXTT19=
PLAYORDER=
